<?xml version="1.0" standalone="no"?>
<!DOCTYPE svg PUBLIC "-//W3C//DTD SVG 20010904//EN"
 "http://www.w3.org/TR/2001/REC-SVG-20010904/DTD/svg10.dtd">
<svg version="1.0" xmlns="http://www.w3.org/2000/svg"
 width="221.000000pt" height="221.000000pt" viewBox="0 0 221.000000 221.000000"
 preserveAspectRatio="xMidYMid meet">
<metadata>
Created by potrace 1.14, written by Peter Selinger 2001-2017
</metadata>
<g transform="translate(0.000000,221.000000) scale(0.100000,-0.100000)"
fill="#000000" stroke="none">
<path d="M1032 1491 c-69 -24 -118 -65 -154 -129 -36 -63 -46 -146 -25 -212
14 -46 253 -430 267 -430 4 0 65 89 134 199 96 151 129 212 138 252 30 143
-54 282 -195 324 -65 19 -100 19 -165 -4z m149 -164 c58 -39 74 -98 44 -157
-41 -80 -169 -78 -211 2 -21 41 -13 102 18 135 44 48 97 55 149 20z"/>
</g>
</svg>
